# xmcd CD database file
#
# Track frame offsets:
#	150
#	17524
#	37652
#	55564
#	72492
#	92042
#	110123
#	126933
#	146058
#	169573
#
# Disc length: 2496 seconds
#
# Revision: 3
# Processed by: cddbd v1.5.2PL0 Copyright (c) Steve Scherf et al.
# Submitted via: CDex 1.70beta2
#
DISCID=8109be0a
DTITLE=Depeche Mode - The Singles 86-98
DYEAR=1998
DGENRE=Synthpop
TTITLE0=Stripped
TTITLE1=Question of Lust
TTITLE2=Question of Time
TTITLE3=Strangelove
TTITLE4=Never Let Me Down Again
TTITLE5=Behind the Wheel
TTITLE6=Personal Jesus
TTITLE7=Enjoy the Silence
TTITLE8=Policy of Truth
TTITLE9=World in my Eyes
EXTD=YEAR: 1998
EXTT0=
EXTT1=
EXTT2=
EXTT3=
EXTT4=
EXTT5=
EXTT6=
EXTT7=
EXTT8=
EXTT9=
PLAYORDER=
